<?xml version="1.0" encoding="UTF-8"?>
<!DOCTYPE svg PUBLIC "-//W3C//DTD SVG 1.1//EN" "http://www.w3.org/Graphics/SVG/1.1/DTD/svg11.dtd">
<!-- Creator: CorelDRAW X5 -->
<svg xmlns="http://www.w3.org/2000/svg" xml:space="preserve" width="297mm" height="210mm" style="shape-rendering:geometricPrecision; text-rendering:geometricPrecision; image-rendering:optimizeQuality; fill-rule:evenodd; clip-rule:evenodd"
viewBox="0 0 297 210"
 xmlns:xlink="http://www.w3.org/1999/xlink">
 <defs>
  <style type="text/css">
   <![CDATA[
    .fil0 {fill:none}
    .fil1 {fill:#d66629}
   ]]>
  </style>
 </defs>
 <g id="Layer_x0020_1">
  <metadata id="CorelCorpID_0Corel-Layer"/>
  <rect class="fil0" width="297" height="210"/>
  <g id="_256391624">
   <path id="_257140592" class="fil1" d="M174.075 74.8858l-5.2434 -7.7944 -0.1284 -0.1908 0.1794 -0.1429c3.4876,-2.7771 7.4568,-4.6255 11.8746,-5.3811 4.2218,-0.722 8.8522,-0.4455 13.8615,0.9725l0.2565 0.0727 -0.0887 0.2501c-0.7362,2.0758 -1.7406,4.1075 -3.0334,6.0913 -1.291,1.981 -2.8695,3.9142 -4.7561,5.7952l-0.0848 0.0846 -0.1187 -0.0131c-1.9755,-0.2173 -3.9959,-0.3598 -6.0685,-0.3314 -2.0695,0.0283 -4.1969,0.2272 -6.3925,0.6927l-0.1634 0.0346 -0.0941 -0.14z"/>
   <path id="_259804856" class="fil1" d="M166.904 64.8533l-8.1047 -4.7495 -0.1985 -0.1163 0.0997 -0.2065c1.9382,-4.0149 4.7132,-7.4017 8.3663,-9.9983 3.4911,-2.4814 7.7833,-4.2403 12.912,-5.1349l0.2627 -0.0457 0.0285 0.2638c0.2368,2.1897 0.2129,4.456 -0.0917,6.8042 -0.3042,2.3449 -0.8883,4.7713 -1.7726,7.2844l-0.0397 0.113 -0.1126 0.0397c-1.8743,0.6609 -3.7567,1.4087 -5.6119,2.333 -1.8525,0.9229 -3.6831,2.0248 -5.4597,3.3964l-0.1323 0.102 -0.1455 -0.0853z"/>
   <path id="_259804688" class="fil1" d="M156.092 58.923l-9.3626 -0.765 -0.2293 -0.0187 0.0002 -0.2293c0.0055,-4.4583 1.0373,-8.7134 3.2029,-12.6374 2.0697,-3.7499 5.1745,-7.1961 9.4079,-10.2263l0.2169 -0.1552 0.1401 0.2254c1.163,1.8704 2.1242,3.9229 2.8681,6.1709 0.7427,2.2449 1.2687,4.6846 1.5617,7.3325l0.0132 0.119 -0.0842 0.0846c-1.4024,1.4084 -2.7742,2.8985 -4.0451,4.536 -1.269,1.6349 -2.4407,3.4216 -3.4468,5.428l-0.0748 0.1493 -0.1682 -0.0138z"/>
   <path id="_259804520" class="fil1" d="M143.778 58.2682l-8.7682 3.3709 -0.2147 0.0825 -0.0993 -0.2067c-1.9284,-4.0196 -2.844,-8.3013 -2.5942,-12.7762 0.2387,-4.2765 1.542,-8.7283 4.0425,-13.2945l0.1281 -0.2339 0.224 0.1423c1.8591,1.1811 3.6153,2.6137 5.2604,4.3167 1.6428,1.7007 3.1747,3.671 4.5871,5.9299l0.0635 0.1015 -0.0393 0.1128c-0.6528,1.8771 -1.2427,3.8148 -1.6778,5.8414 -0.4344,2.0235 -0.7154,4.1416 -0.7519,6.3857l-0.0027 0.1671 -0.1575 0.0605z"/>
   <path id="_259804352" class="fil1" d="M132.397 63.0184l-6.439 6.8398 -0.1576 0.1676 -0.1791 -0.1433c-3.4808,-2.7857 -6.1626,-6.2467 -7.8781,-10.3873 -1.6394,-3.957 -2.3957,-8.5335 -2.1227,-13.7325l0.0141 -0.2663 0.2635 0.0311c2.1873,0.258 4.3911,0.7874 6.612,1.6085 2.2178,0.82 4.4526,1.9311 6.7048,3.354l0.1013 0.064 0.0135 0.1186c0.2258,1.9746 0.5345,3.9763 1.0214,5.9912 0.486,2.0117 1.1514,4.0421 2.0917,6.0801l0.0699 0.1517 -0.1157 0.1228z"/>
   <path id="_259804184" class="fil1" d="M124.203 72.2338l-2.8359 8.9556 -0.0694 0.2193 -0.2235 -0.0514c-4.3445,-1.0007 -8.2619,-2.9563 -11.6034,-5.9434 -3.1931,-2.8546 -5.8593,-6.6504 -7.8679,-11.4535l-0.1028 -0.246 0.2509 -0.0863c2.0829,-0.716 4.2982,-1.1947 6.6555,-1.418 2.354,-0.2228 4.8496,-0.1908 7.4961,0.1147l0.119 0.0137 0.0636 0.101c1.0598,1.6813 2.206,3.3512 3.5184,4.9556 1.3104,1.6019 2.7905,3.143 4.5215,4.5716l0.1289 0.1063 -0.051 0.1608z"/>
   <path id="_259804016" class="fil1" d="M120.815 84.0913l1.3283 9.2994 0.0326 0.2278 -0.2237 0.0505c-4.3487,0.9824 -8.7267,0.919 -13.0329,-0.3235 -4.1153,-1.1874 -8.1637,-3.4516 -12.0565,-6.9085l-0.1994 -0.1771 0.1887 -0.1865c1.5664,-1.5485 3.3549,-2.9406 5.3822,-4.164 2.0245,-1.2216 4.2871,-2.275 6.8043,-3.1474l0.1131 -0.0393 0.1011 0.0635c1.6841,1.0554 3.4411,2.063 5.3195,2.9396 1.8754,0.8752 3.8774,1.6219 6.0567,2.1585l0.1622 0.04 0.0238 0.167z"/>
   <path id="_258468552" class="fil1" d="M122.905 96.2448l5.2297 7.8035 0.1281 0.191 -0.1796 0.1426c-3.4925,2.771 -7.4649,4.6125 -11.884,5.3603 -4.2231,0.7146 -8.8529,0.4301 -13.8597,-0.9966l-0.2565 -0.0732 0.0891 -0.2499c0.7399,-2.0746 1.7479,-4.1045 3.0441,-6.0861 1.2944,-1.9787 2.8764,-3.9091 4.7662,-5.7868l0.085 -0.0844 0.1186 0.0133c1.9752,0.2207 3.9953,0.3667 6.068,0.342 2.0694,-0.0247 4.1972,-0.22 6.3936,-0.6816l0.1635 -0.0343 0.0939 0.1402z"/>
   <path id="_258468384" class="fil1" d="M130.058 106.29l8.0965 4.7636 0.1983 0.1166 -0.1001 0.2064c-1.9453,4.0115 -4.7262,7.3934 -8.3838,9.9837 -3.4954,2.4753 -7.7907,4.2266 -12.9209,5.1123l-0.2628 0.0453 -0.0281 -0.2639c-0.2329,-2.1902 -0.205,-4.4564 0.1037,-6.804 0.3083,-2.3444 0.8966,-4.7698 1.7852,-7.2813l0.0399 -0.113 0.1127 -0.0394c1.8755,-0.6577 3.7591,-1.4022 5.616,-2.3233 1.8541,-0.9197 3.6867,-2.0183 5.4657,-3.3868l0.1324 -0.1018 0.1453 0.0856z"/>
   <path id="_258468216" class="fil1" d="M140.86 112.239l9.3613 0.7814 0.2292 0.019 -0.0006 0.2294c-0.0133,4.4582 -1.0525,8.7116 -3.225,12.6317 -2.0762,3.7463 -5.1871,7.1871 -9.4257,10.2099l-0.2172 0.1548 -0.1397 -0.2256c-1.1597,-1.8725 -2.1173,-3.9267 -2.8573,-6.1759 -0.7388,-2.2462 -1.2605,-4.6868 -1.5489,-7.3352l-0.013 -0.1191 0.0844 -0.0844c1.4048,-1.4059 2.7792,-2.8936 4.053,-4.5289 1.2718,-1.6327 2.4466,-3.4174 3.4562,-5.422l0.0751 -0.1492 0.1682 0.0141z"/>
   <path id="_258468048" class="fil1" d="M153.174 112.915l8.7741 -3.3555 0.2149 -0.0823 0.0988 0.207c1.9214,4.0229 2.8296,8.3062 2.572,12.7807 -0.2462,4.276 -1.5572,8.7255 -4.0657,13.2874l-0.1286 0.2337 -0.2237 -0.1427c-1.857,-1.1843 -3.6107,-2.62 -5.2529,-4.3259 -1.6398,-1.7036 -3.1682,-3.6765 -4.5767,-5.9379l-0.0633 -0.1016 0.0394 -0.1127c0.6562,-1.876 1.2495,-3.8126 1.6881,-5.8385 0.4379,-2.0227 0.7226,-4.1404 0.763,-6.3844l0.003 -0.1671 0.1576 -0.0602z"/>
   <path id="_258467880" class="fil1" d="M164.562 108.185l6.451 -6.8286 0.1579 -0.1673 0.1788 0.1436c3.476,2.7918 6.1517,6.2575 7.86,10.4011 1.6325,3.9598 2.3808,8.5377 2.0987,13.7361l-0.0145 0.2663 -0.2634 -0.0315c-2.187,-0.2619 -4.3898,-0.7951 -6.6092,-1.6201 -2.2164,-0.8239 -4.4493,-1.9388 -6.699,-3.3657l-0.1012 -0.0641 -0.0133 -0.1187c-0.2223,-1.975 -0.5275,-3.9773 -1.0109,-5.9929 -0.4825,-2.0126 -1.1443,-4.0442 -2.0811,-6.0838l-0.0697 -0.1518 0.1159 -0.1226z"/>
   <path id="_258467712" class="fil1" d="M172.773 98.9837l2.8515 -8.9506 0.0698 -0.2192 0.2234 0.0519c4.3427,1.0082 8.2567,2.9707 11.593,5.9636 3.1881,2.8601 5.8476,6.6606 7.8479,11.4672l0.1023 0.2462 -0.251 0.0858c-2.0842,0.7124 -4.3003,1.1873 -6.658,1.4064 -2.3544,0.2188 -4.8499,0.1824 -7.4959,-0.1277l-0.1189 -0.0139 -0.0635 -0.1012c-1.0568,-1.6832 -2.2001,-3.355 -3.5097,-4.9617 -1.3076,-1.6042 -2.785,-3.1479 -4.5136,-4.5795l-0.1286 -0.1065 0.0513 -0.1608z"/>
   <path id="_256391840" class="fil1" d="M176.181 87.1322l-1.3121 -9.3017 -0.0322 -0.2278 0.2238 -0.0502c4.3504,-0.9748 8.7282,-0.9037 13.0323,0.3463 4.1132,1.1946 8.1577,3.4659 12.0444,6.9295l0.1991 0.1774 -0.1891 0.1863c-1.569,1.5457 -3.36,2.9346 -5.3894,4.1545 -2.0266,1.2181 -4.291,2.2675 -6.8097,3.1356l-0.1133 0.039 -0.101 -0.0636c-1.6822,-1.0584 -3.4374,-2.069 -5.3143,-2.9488 -1.8739,-0.8785 -3.8745,-1.6288 -6.0529,-2.1692l-0.1621 -0.0402 -0.0235 -0.1671z"/>
   <path id="_256391672" class="fil1" d="M174.112 74.9751l-5.2161 -7.8126 -0.1278 -0.1913 0.1799 -0.1422c3.4973,-2.765 7.4729,-4.5995 11.8933,-5.3396 4.2243,-0.7073 8.8537,-0.4146 13.858,1.0208l0.2563 0.0736 -0.0896 0.2498c-0.7435,2.0733 -1.7549,4.1015 -3.0546,6.0807 -1.2979,1.9765 -2.8832,3.9041 -4.7763,5.7785l-0.0851 0.0843 -0.1186 -0.0135c-1.9748,-0.2242 -3.9947,-0.3737 -6.0674,-0.3526 -2.0695,0.0211 -4.1976,0.2126 -6.3949,0.6704l-0.1635 0.0341 -0.0936 -0.1404z"/>
  </g>
 </g>
</svg>
