<?xml version="1.0" encoding="UTF-8"?>
<!DOCTYPE svg PUBLIC "-//W3C//DTD SVG 1.1//EN" "http://www.w3.org/Graphics/SVG/1.1/DTD/svg11.dtd">
<!-- Creator: CorelDRAW X5 -->
<svg xmlns="http://www.w3.org/2000/svg" xml:space="preserve" style="shape-rendering:geometricPrecision; text-rendering:geometricPrecision; image-rendering:optimizeQuality; fill-rule:evenodd; clip-rule:evenodd"
viewBox="60 0 180 200"
 xmlns:xlink="http://www.w3.org/1999/xlink">
 <defs>
  <style type="text/css">
   <![CDATA[
    .fil0 {fill:none}
    .fil2 {fill:#d66629}
    .fil1 {fill:#d66629;fill-rule:nonzero}
   ]]>
  </style>
 </defs>
 <g id="Layer_x0020_1">
  <metadata id="CorelCorpID_0Corel-Layer"/>
  <rect class="fil0" width="297" height="210"/>
  <g id="_256391576">
   <path id="_257140760" class="fil1" d="M93.1597 174.587l-8.8053 -22.7277 3.2597 0 5.9055 16.51c0.4762,1.3229 0.8731,2.5664 1.1906,3.72 0.3545,-1.2382 0.762,-2.4765 1.2276,-3.72l6.1384 -16.51 3.0691 0 -8.9005 22.7277 -3.0851 0z"/>
   <path id="_2571407601" class="fil1" d="M117.004 169.284l2.8839 0.3546c-0.4551,1.688 -1.2964,2.9951 -2.5241,3.9264 -1.233,0.926 -2.8046,1.3917 -4.7149,1.3917 -2.4077,0 -4.318,-0.7408 -5.7256,-2.2225 -1.4128,-1.4817 -2.1166,-3.5613 -2.1166,-6.2389 0,-2.7728 0.7143,-4.9212 2.1378,-6.4505 1.4288,-1.5293 3.2755,-2.2966 5.551,-2.2966 2.2013,0 4.0005,0.7514 5.3922,2.249 1.397,1.4975 2.0955,3.6089 2.0955,6.3235 0,0.1693 -0.0053,0.4181 -0.0159,0.7461l-12.2767 0c0.1006,1.8098 0.6139,3.1962 1.5346,4.154 0.9208,0.9631 2.0638,1.4446 3.4396,1.4446 1.0213,0 1.8944,-0.2699 2.6194,-0.8096 0.7249,-0.5345 1.2964,-1.3917 1.7198,-2.5718zm-9.1599 -4.5137l9.1916 0c-0.1217,-1.3812 -0.4762,-2.4236 -1.053,-3.1115 -0.889,-1.0743 -2.0426,-1.614 -3.4555,-1.614 -1.2806,0 -2.3601,0.4286 -3.2332,1.2859 -0.8731,0.8572 -1.3547,2.0055 -1.4499,3.4396z"/>
   <path id="_25714076012" class="fil1" d="M123.396 174.587l0 -16.4624 2.5083 0 0 2.3389c1.2117,-1.8097 2.958,-2.7146 5.2387,-2.7146 0.9948,0 1.905,0.1799 2.7358,0.5345 0.8361,0.3598 1.4552,0.8255 1.868,1.4076 0.418,0.5767 0.7037,1.2647 0.8731,2.0584 0.1005,0.5186 0.1534,1.4235 0.1534,2.7146l0 10.123 -2.794 0 0 -10.0171c0,-1.1324 -0.1058,-1.9844 -0.3228,-2.5506 -0.2169,-0.5609 -0.6032,-1.0107 -1.1535,-1.3441 -0.5557,-0.3387 -1.2012,-0.508 -1.9474,-0.508 -1.1906,0 -2.2119,0.381 -3.0797,1.1324 -0.8626,0.7567 -1.2912,2.1855 -1.2912,4.2969l0 8.9905 -2.7887 0z"/>
   <path id="_257140760123" class="fil1" d="M141.065 155.071l0 -3.212 2.794 0 0 3.212 -2.794 0zm0 19.5157l0 -16.4624 2.794 0 0 16.4624 -2.794 0z"/>
   <path id="_2571407601234" class="fil1" d="M158.787 174.587l0 -2.0796c-1.0425,1.6351 -2.5771,2.45 -4.6038,2.45 -1.3123,0 -2.5188,-0.3598 -3.6195,-1.0848 -1.1006,-0.7196 -1.9526,-1.7304 -2.5611,-3.0321 -0.6033,-1.2965 -0.9049,-2.7834 -0.9049,-4.4715 0,-1.6404 0.2752,-3.1326 0.8202,-4.4714 0.5503,-1.3388 1.3705,-2.3654 2.4659,-3.0745 1.0954,-0.7144 2.3231,-1.0742 3.6777,-1.0742 0.9896,0 1.8733,0.2117 2.6459,0.6297 0.7778,0.4181 1.4075,0.9631 1.8944,1.6351l0 -8.1544 2.7728 0 0 22.7277 -2.5876 0zm-8.8212 -8.218c0,2.1114 0.4445,3.6883 1.3335,4.7308 0.889,1.0424 1.9367,1.5663 3.1485,1.5663 1.2171,0 2.2543,-0.5027 3.1062,-1.4975 0.852,-0.9949 1.2806,-2.5189 1.2806,-4.5667 0,-2.2543 -0.4339,-3.9053 -1.3017,-4.9583 -0.8679,-1.0584 -1.9368,-1.5822 -3.2121,-1.5822 -1.2382,0 -2.2754,0.508 -3.1062,1.5187 -0.8308,1.0107 -1.2488,2.6088 -1.2488,4.7889z"/>
   <path id="_25714076012345" class="fil1" d="M165.777 155.071l0 -3.212 2.794 0 0 3.212 -2.794 0zm0 19.5157l0 -16.4624 2.794 0 0 16.4624 -2.794 0z"/>
   <path id="_257140760123456" class="fil1" d="M183.61 174.587l0 -2.4183c-1.2859,1.8627 -3.0268,2.7887 -5.2282,2.7887 -0.9683,0 -1.8785,-0.1852 -2.7199,-0.5556 -0.8413,-0.3704 -1.4658,-0.8414 -1.8732,-1.4023 -0.4128,-0.5662 -0.6985,-1.2541 -0.8626,-2.069 -0.1111,-0.5504 -0.1693,-1.4182 -0.1693,-2.6088l0 -10.1971 2.7887 0 0 9.1281c0,1.4605 0.0582,2.4395 0.1693,2.9475 0.18,0.7355 0.5504,1.307 1.1166,1.7304 0.5715,0.418 1.2753,0.6244 2.1114,0.6244 0.836,0 1.6192,-0.2117 2.3548,-0.6403 0.7355,-0.4286 1.2541,-1.016 1.5557,-1.7515 0.3069,-0.7409 0.4604,-1.8151 0.4604,-3.2174l0 -8.8212 2.7887 0 0 16.4624 -2.4924 0z"/>
   <path id="_2571407601234567" class="fil1" d="M190.479 174.587l0 -16.4624 2.4924 0 0 2.3072c0.5186,-0.8043 1.2065,-1.4552 2.0637,-1.9421 0.8573,-0.4921 1.8362,-0.7408 2.9316,-0.7408 1.2171,0 2.2172,0.254 2.9951,0.762 0.7832,0.508 1.3335,1.2118 1.651,2.122 1.307,-1.9209 3.0004,-2.884 5.0853,-2.884 1.6351,0 2.8892,0.4551 3.7677,1.36 0.8784,0.9048 1.3176,2.2966 1.3176,4.1751l0 11.303 -2.7729 0 0 -10.3717c0,-1.1165 -0.0899,-1.9208 -0.2698,-2.413 -0.1852,-0.4868 -0.5133,-0.8837 -0.9843,-1.1853 -0.4762,-0.2963 -1.0371,-0.4498 -1.6774,-0.4498 -1.1589,0 -2.1167,0.3863 -2.884,1.1589 -0.762,0.7673 -1.1483,2.0002 -1.1483,3.6936l0 9.5673 -2.7887 0 0 -10.6945c0,-1.2435 -0.2275,-2.1748 -0.6826,-2.794 -0.4551,-0.6191 -1.1959,-0.9313 -2.2331,-0.9313 -0.7832,0 -1.5081,0.2064 -2.1749,0.6244 -0.6667,0.4128 -1.1536,1.016 -1.4499,1.8098 -0.3016,0.799 -0.4498,1.9473 -0.4498,3.4448l0 8.5408 -2.7887 0z"/>
   <g>
    <path id="_257140592" class="fil2" d="M174.075 74.8858l-5.2434 -7.7944 -0.1284 -0.1908 0.1794 -0.1429c3.4876,-2.7771 7.4568,-4.6255 11.8746,-5.3811 4.2218,-0.722 8.8522,-0.4455 13.8615,0.9725l0.2565 0.0727 -0.0887 0.2501c-0.7362,2.0758 -1.7406,4.1075 -3.0334,6.0913 -1.291,1.981 -2.8695,3.9142 -4.7561,5.7952l-0.0848 0.0846 -0.1187 -0.0131c-1.9755,-0.2173 -3.9959,-0.3598 -6.0685,-0.3314 -2.0695,0.0283 -4.1969,0.2272 -6.3925,0.6927l-0.1634 0.0346 -0.0941 -0.14z"/>
    <path id="_259804856" class="fil2" d="M166.904 64.8533l-8.1047 -4.7495 -0.1985 -0.1163 0.0997 -0.2065c1.9382,-4.0149 4.7132,-7.4017 8.3663,-9.9983 3.4911,-2.4814 7.7833,-4.2403 12.912,-5.1349l0.2627 -0.0457 0.0285 0.2638c0.2368,2.1897 0.2129,4.456 -0.0917,6.8042 -0.3042,2.3449 -0.8883,4.7713 -1.7726,7.2844l-0.0397 0.113 -0.1126 0.0397c-1.8743,0.6609 -3.7567,1.4087 -5.6119,2.333 -1.8525,0.9229 -3.6831,2.0248 -5.4597,3.3964l-0.1323 0.102 -0.1455 -0.0853z"/>
    <path id="_259804688" class="fil2" d="M156.092 58.923l-9.3626 -0.765 -0.2293 -0.0187 0.0002 -0.2293c0.0055,-4.4583 1.0373,-8.7134 3.2029,-12.6374 2.0697,-3.7499 5.1745,-7.1961 9.4079,-10.2263l0.2169 -0.1552 0.1401 0.2254c1.163,1.8704 2.1242,3.9229 2.8681,6.1709 0.7427,2.2449 1.2687,4.6846 1.5617,7.3325l0.0132 0.119 -0.0842 0.0846c-1.4024,1.4084 -2.7742,2.8985 -4.0451,4.536 -1.269,1.6349 -2.4407,3.4216 -3.4468,5.428l-0.0748 0.1493 -0.1682 -0.0138z"/>
    <path id="_259804520" class="fil2" d="M143.778 58.2682l-8.7682 3.3709 -0.2147 0.0825 -0.0993 -0.2067c-1.9284,-4.0196 -2.844,-8.3013 -2.5942,-12.7762 0.2387,-4.2765 1.542,-8.7283 4.0425,-13.2945l0.1281 -0.2339 0.224 0.1423c1.8591,1.1811 3.6153,2.6137 5.2604,4.3167 1.6428,1.7007 3.1747,3.671 4.5871,5.9299l0.0635 0.1015 -0.0393 0.1128c-0.6528,1.8771 -1.2427,3.8148 -1.6778,5.8414 -0.4344,2.0235 -0.7154,4.1416 -0.7519,6.3857l-0.0027 0.1671 -0.1575 0.0605z"/>
    <path id="_259804352" class="fil2" d="M132.397 63.0184l-6.439 6.8398 -0.1576 0.1676 -0.1791 -0.1433c-3.4808,-2.7857 -6.1626,-6.2467 -7.8781,-10.3873 -1.6394,-3.957 -2.3957,-8.5335 -2.1227,-13.7325l0.0141 -0.2663 0.2635 0.0311c2.1873,0.258 4.3911,0.7874 6.612,1.6085 2.2178,0.82 4.4526,1.9311 6.7048,3.354l0.1013 0.064 0.0135 0.1186c0.2258,1.9746 0.5345,3.9763 1.0214,5.9912 0.486,2.0117 1.1514,4.0421 2.0917,6.0801l0.0699 0.1517 -0.1157 0.1228z"/>
    <path id="_259804184" class="fil2" d="M124.203 72.2338l-2.8359 8.9556 -0.0694 0.2193 -0.2235 -0.0514c-4.3445,-1.0007 -8.2619,-2.9563 -11.6034,-5.9434 -3.1931,-2.8546 -5.8593,-6.6504 -7.8679,-11.4535l-0.1028 -0.246 0.2509 -0.0863c2.0829,-0.716 4.2982,-1.1947 6.6555,-1.418 2.354,-0.2228 4.8496,-0.1908 7.4961,0.1147l0.119 0.0137 0.0636 0.101c1.0598,1.6813 2.206,3.3512 3.5184,4.9556 1.3104,1.6019 2.7905,3.143 4.5215,4.5716l0.1289 0.1063 -0.051 0.1608z"/>
    <path id="_259804016" class="fil2" d="M120.815 84.0913l1.3283 9.2994 0.0326 0.2278 -0.2237 0.0505c-4.3487,0.9824 -8.7267,0.919 -13.0329,-0.3235 -4.1153,-1.1874 -8.1637,-3.4516 -12.0565,-6.9085l-0.1994 -0.1771 0.1887 -0.1865c1.5664,-1.5485 3.3549,-2.9406 5.3822,-4.164 2.0245,-1.2216 4.2871,-2.275 6.8043,-3.1474l0.1131 -0.0393 0.1011 0.0635c1.6841,1.0554 3.4411,2.063 5.3195,2.9396 1.8754,0.8752 3.8774,1.6219 6.0567,2.1585l0.1622 0.04 0.0238 0.167z"/>
    <path id="_258468552" class="fil2" d="M122.905 96.2448l5.2297 7.8035 0.1281 0.191 -0.1796 0.1426c-3.4925,2.771 -7.4649,4.6125 -11.884,5.3603 -4.2231,0.7146 -8.8529,0.4301 -13.8597,-0.9966l-0.2565 -0.0732 0.0891 -0.2499c0.7399,-2.0746 1.7479,-4.1045 3.0441,-6.0861 1.2944,-1.9787 2.8764,-3.9091 4.7662,-5.7868l0.085 -0.0844 0.1186 0.0133c1.9752,0.2207 3.9953,0.3667 6.068,0.342 2.0694,-0.0247 4.1972,-0.22 6.3936,-0.6816l0.1635 -0.0343 0.0939 0.1402z"/>
    <path id="_258468384" class="fil2" d="M130.058 106.29l8.0965 4.7636 0.1983 0.1166 -0.1001 0.2064c-1.9453,4.0115 -4.7262,7.3934 -8.3838,9.9837 -3.4954,2.4753 -7.7907,4.2266 -12.9209,5.1123l-0.2628 0.0453 -0.0281 -0.2639c-0.2329,-2.1902 -0.205,-4.4564 0.1037,-6.804 0.3083,-2.3444 0.8966,-4.7698 1.7852,-7.2813l0.0399 -0.113 0.1127 -0.0394c1.8755,-0.6577 3.7591,-1.4022 5.616,-2.3233 1.8541,-0.9197 3.6867,-2.0183 5.4657,-3.3868l0.1324 -0.1018 0.1453 0.0856z"/>
    <path id="_258468216" class="fil2" d="M140.86 112.239l9.3613 0.7814 0.2292 0.019 -0.0006 0.2294c-0.0133,4.4582 -1.0525,8.7116 -3.225,12.6317 -2.0762,3.7463 -5.1871,7.1871 -9.4257,10.2099l-0.2172 0.1548 -0.1397 -0.2256c-1.1597,-1.8725 -2.1173,-3.9267 -2.8573,-6.1759 -0.7388,-2.2462 -1.2605,-4.6868 -1.5489,-7.3352l-0.013 -0.1191 0.0844 -0.0844c1.4048,-1.4059 2.7792,-2.8936 4.053,-4.5289 1.2718,-1.6327 2.4466,-3.4174 3.4562,-5.422l0.0751 -0.1492 0.1682 0.0141z"/>
    <path id="_258468048" class="fil2" d="M153.174 112.915l8.7741 -3.3555 0.2149 -0.0823 0.0988 0.207c1.9214,4.0229 2.8296,8.3062 2.572,12.7807 -0.2462,4.276 -1.5572,8.7255 -4.0657,13.2874l-0.1286 0.2337 -0.2237 -0.1427c-1.857,-1.1843 -3.6107,-2.62 -5.2529,-4.3259 -1.6398,-1.7036 -3.1682,-3.6765 -4.5767,-5.9379l-0.0633 -0.1016 0.0394 -0.1127c0.6562,-1.876 1.2495,-3.8126 1.6881,-5.8385 0.4379,-2.0227 0.7226,-4.1404 0.763,-6.3844l0.003 -0.1671 0.1576 -0.0602z"/>
    <path id="_258467880" class="fil2" d="M164.562 108.185l6.451 -6.8286 0.1579 -0.1673 0.1788 0.1436c3.476,2.7918 6.1517,6.2575 7.86,10.4011 1.6325,3.9598 2.3808,8.5377 2.0987,13.7361l-0.0145 0.2663 -0.2634 -0.0315c-2.187,-0.2619 -4.3898,-0.7951 -6.6092,-1.6201 -2.2164,-0.8239 -4.4493,-1.9388 -6.699,-3.3657l-0.1012 -0.0641 -0.0133 -0.1187c-0.2223,-1.975 -0.5275,-3.9773 -1.0109,-5.9929 -0.4825,-2.0126 -1.1443,-4.0442 -2.0811,-6.0838l-0.0697 -0.1518 0.1159 -0.1226z"/>
    <path id="_258467712" class="fil2" d="M172.773 98.9837l2.8515 -8.9506 0.0698 -0.2192 0.2234 0.0519c4.3427,1.0082 8.2567,2.9707 11.593,5.9636 3.1881,2.8601 5.8476,6.6606 7.8479,11.4672l0.1023 0.2462 -0.251 0.0858c-2.0842,0.7124 -4.3003,1.1873 -6.658,1.4064 -2.3544,0.2188 -4.8499,0.1824 -7.4959,-0.1277l-0.1189 -0.0139 -0.0635 -0.1012c-1.0568,-1.6832 -2.2001,-3.355 -3.5097,-4.9617 -1.3076,-1.6042 -2.785,-3.1479 -4.5136,-4.5795l-0.1286 -0.1065 0.0513 -0.1608z"/>
    <path id="_256391840" class="fil2" d="M176.181 87.1322l-1.3121 -9.3017 -0.0322 -0.2278 0.2238 -0.0502c4.3504,-0.9748 8.7282,-0.9037 13.0323,0.3463 4.1132,1.1946 8.1577,3.4659 12.0444,6.9295l0.1991 0.1774 -0.1891 0.1863c-1.569,1.5457 -3.36,2.9346 -5.3894,4.1545 -2.0266,1.2181 -4.291,2.2675 -6.8097,3.1356l-0.1133 0.039 -0.101 -0.0636c-1.6822,-1.0584 -3.4374,-2.069 -5.3143,-2.9488 -1.8739,-0.8785 -3.8745,-1.6288 -6.0529,-2.1692l-0.1621 -0.0402 -0.0235 -0.1671z"/>
    <path id="_256391672" class="fil2" d="M174.112 74.9751l-5.2161 -7.8126 -0.1278 -0.1913 0.1799 -0.1422c3.4973,-2.765 7.4729,-4.5995 11.8933,-5.3396 4.2243,-0.7073 8.8537,-0.4146 13.858,1.0208l0.2563 0.0736 -0.0896 0.2498c-0.7435,2.0733 -1.7549,4.1015 -3.0546,6.0807 -1.2979,1.9765 -2.8832,3.9041 -4.7763,5.7785l-0.0851 0.0843 -0.1186 -0.0135c-1.9748,-0.2242 -3.9947,-0.3737 -6.0674,-0.3526 -2.0695,0.0211 -4.1976,0.2126 -6.3949,0.6704l-0.1635 0.0341 -0.0936 -0.1404z"/>
   </g>
  </g>
 </g>
</svg>
